<svg width="60" height="60" viewBox="0 0 60 60" fill="none" xmlns="http://www.w3.org/2000/svg">
<path opacity="0.4" d="M40.5977 9.12598H19.3977C13.2227 9.12598 8.22266 14.151 8.22266 20.301V43.826C8.22266 49.976 13.2477 55.001 19.3977 55.001H40.5727C46.7477 55.001 51.7477 49.976 51.7477 43.826V20.301C51.7727 14.126 46.7477 9.12598 40.5977 9.12598Z" fill="#3083FF"/>
<path d="M35.8744 5H24.1244C21.5244 5 19.3994 7.1 19.3994 9.7V12.05C19.3994 14.65 21.4994 16.75 24.0994 16.75H35.8744C38.4744 16.75 40.5744 14.65 40.5744 12.05V9.7C40.5994 7.1 38.4744 5 35.8744 5Z" fill="#3083FF"/>
<path d="M27.025 42.3741C26.55 42.3741 26.075 42.1991 25.7 41.8241L21.95 38.0741C21.225 37.3491 21.225 36.1491 21.95 35.4241C22.675 34.6991 23.875 34.6991 24.6 35.4241L27.025 37.8491L35.7 29.1741C36.425 28.4491 37.625 28.4491 38.35 29.1741C39.075 29.8991 39.075 31.0991 38.35 31.8241L28.35 41.8241C28 42.1991 27.5 42.3741 27.025 42.3741Z" fill="#3083FF"/>
</svg>
