<svg width="25" height="24" viewBox="0 0 25 24" fill="none" xmlns="http://www.w3.org/2000/svg">
<g clip-path="url(#clip0_1078_9030)">
<path d="M12.7695 7.99455C13.8695 7.99455 14.7695 7.09841 14.7695 6.00313C14.7695 4.90786 13.8695 4.01172 12.7695 4.01172C11.6695 4.01172 10.7695 4.90786 10.7695 6.00313C10.7695 7.09841 11.6695 7.99455 12.7695 7.99455ZM12.7695 9.98597C11.6695 9.98597 10.7695 10.8821 10.7695 11.9774C10.7695 13.0727 11.6695 13.9688 12.7695 13.9688C13.8695 13.9688 14.7695 13.0727 14.7695 11.9774C14.7695 10.8821 13.8695 9.98597 12.7695 9.98597ZM12.7695 15.9602C11.6695 15.9602 10.7695 16.8564 10.7695 17.9516C10.7695 19.0469 11.6695 19.943 12.7695 19.943C13.8695 19.943 14.7695 19.0469 14.7695 17.9516C14.7695 16.8564 13.8695 15.9602 12.7695 15.9602Z" fill="currentColor"/>
</g>
<defs>
<clipPath id="clip0_1078_9030">
<rect width="24" height="23.897" fill="currentColor" transform="translate(0.769531 0.0273438)"/>
</clipPath>
</defs>
</svg>
