<svg width="25" height="25" viewBox="0 0 25 25" fill="none" xmlns="http://www.w3.org/2000/svg">
<path d="M9.94531 18.5C9.84531 18.5 9.75531 18.48 9.65531 18.44C9.37531 18.33 9.19531 18.05 9.19531 17.75V11.75C9.19531 11.34 9.53531 11 9.94531 11C10.3553 11 10.6953 11.34 10.6953 11.75V15.94L11.4153 15.22C11.7053 14.93 12.1853 14.93 12.4753 15.22C12.7653 15.51 12.7653 15.99 12.4753 16.28L10.4753 18.28C10.3353 18.42 10.1353 18.5 9.94531 18.5Z" fill="currentColor"/>
<path d="M9.94477 18.4999C9.75477 18.4999 9.56477 18.4299 9.41477 18.2799L7.41477 16.2799C7.12477 15.9899 7.12477 15.5099 7.41477 15.2199C7.70477 14.9299 8.18477 14.9299 8.47477 15.2199L10.4748 17.2199C10.7648 17.5099 10.7648 17.9899 10.4748 18.2799C10.3248 18.4299 10.1348 18.4999 9.94477 18.4999Z" fill="currentColor"/>
<path d="M15.9453 23.5H9.94531C4.51531 23.5 2.19531 21.18 2.19531 15.75V9.75C2.19531 4.32 4.51531 2 9.94531 2H14.9453C15.3553 2 15.6953 2.34 15.6953 2.75C15.6953 3.16 15.3553 3.5 14.9453 3.5H9.94531C5.33531 3.5 3.69531 5.14 3.69531 9.75V15.75C3.69531 20.36 5.33531 22 9.94531 22H15.9453C20.5553 22 22.1953 20.36 22.1953 15.75V10.75C22.1953 10.34 22.5353 10 22.9453 10C23.3553 10 23.6953 10.34 23.6953 10.75V15.75C23.6953 21.18 21.3753 23.5 15.9453 23.5Z" fill="currentColor"/>
<path d="M22.9453 11.5H18.9453C15.5253 11.5 14.1953 10.17 14.1953 6.74999V2.74999C14.1953 2.44999 14.3753 2.16999 14.6553 2.05999C14.9353 1.93999 15.2553 2.00999 15.4753 2.21999L23.4753 10.22C23.6853 10.43 23.7553 10.76 23.6353 11.04C23.5153 11.32 23.2453 11.5 22.9453 11.5ZM15.6953 4.55999V6.74999C15.6953 9.32999 16.3653 9.99999 18.9453 9.99999H21.1353L15.6953 4.55999Z" fill="currentColor"/>
</svg>
