<svg width="28" height="28" viewBox="0 0 28 28" fill="none" xmlns="http://www.w3.org/2000/svg">
<path d="M17.5 26.5416H10.5C4.16504 26.5416 1.45837 23.8349 1.45837 17.4999V10.4999C1.45837 4.16492 4.16504 1.45825 10.5 1.45825H12.8334C13.3117 1.45825 13.7084 1.85492 13.7084 2.33325C13.7084 2.81159 13.3117 3.20825 12.8334 3.20825H10.5C5.12171 3.20825 3.20837 5.12159 3.20837 10.4999V17.4999C3.20837 22.8783 5.12171 24.7916 10.5 24.7916H17.5C22.8784 24.7916 24.7917 22.8783 24.7917 17.4999V15.1666C24.7917 14.6883 25.1884 14.2916 25.6667 14.2916C26.145 14.2916 26.5417 14.6883 26.5417 15.1666V17.4999C26.5417 23.8349 23.835 26.5416 17.5 26.5416Z" fill="currentColor"/>
<path d="M9.91668 20.6382C9.20501 20.6382 8.55168 20.3815 8.07334 19.9148C7.50168 19.3432 7.25668 18.5148 7.38501 17.6398L7.88668 14.1282C7.98001 13.4515 8.42334 12.5765 8.90168 12.0982L18.095 2.90482C20.4167 0.583158 22.7733 0.583158 25.095 2.90482C26.3667 4.17649 26.9383 5.47149 26.8217 6.76649C26.7167 7.81649 26.1567 8.84316 25.095 9.89316L15.9017 19.0865C15.4233 19.5648 14.5483 20.0082 13.8717 20.1015L10.36 20.6032C10.2083 20.6382 10.0567 20.6382 9.91668 20.6382ZM19.3317 4.14149L10.1383 13.3348C9.91668 13.5565 9.66001 14.0698 9.61334 14.3732L9.11168 17.8848C9.06501 18.2232 9.13501 18.5032 9.31001 18.6782C9.48501 18.8532 9.76501 18.9232 10.1033 18.8765L13.615 18.3748C13.9183 18.3282 14.4433 18.0715 14.6533 17.8498L23.8467 8.65649C24.605 7.89816 25.0017 7.22149 25.06 6.59149C25.13 5.83316 24.7333 5.02816 23.8467 4.12982C21.98 2.26316 20.6967 2.78816 19.3317 4.14149Z" fill="currentColor"/>
<path d="M23.1583 11.4683C23.0767 11.4683 22.995 11.4567 22.925 11.4333C19.8567 10.57 17.4183 8.13166 16.555 5.06332C16.4267 4.59666 16.695 4.11832 17.1617 3.97832C17.6283 3.84999 18.1067 4.11832 18.235 4.58499C18.935 7.06999 20.9067 9.04166 23.3917 9.74166C23.8583 9.86999 24.1267 10.36 23.9983 10.8267C23.8933 11.2233 23.5433 11.4683 23.1583 11.4683Z" fill="currentColor"/>
</svg>
