<svg width="41" height="41" viewBox="0 0 41 41" fill="none" xmlns="http://www.w3.org/2000/svg">
<path d="M20.5231 38.6668C10.6398 38.6668 2.60645 30.6335 2.60645 20.7502C2.60645 10.8668 10.6398 2.8335 20.5231 2.8335C30.4064 2.8335 38.4398 10.8668 38.4398 20.7502C38.4398 30.6335 30.4064 38.6668 20.5231 38.6668ZM20.5231 5.3335C12.0231 5.3335 5.10645 12.2502 5.10645 20.7502C5.10645 29.2502 12.0231 36.1668 20.5231 36.1668C29.0231 36.1668 35.9398 29.2502 35.9398 20.7502C35.9398 12.2502 29.0231 5.3335 20.5231 5.3335Z" fill="#3083FF"/>
<path d="M20.5234 23.6668C19.8401 23.6668 19.2734 23.1002 19.2734 22.4168V14.0835C19.2734 13.4002 19.8401 12.8335 20.5234 12.8335C21.2068 12.8335 21.7734 13.4002 21.7734 14.0835V22.4168C21.7734 23.1002 21.2068 23.6668 20.5234 23.6668Z" fill="#3083FF"/>
<path d="M20.5231 29.0833C20.3064 29.0833 20.0898 29.0333 19.8898 28.95C19.6898 28.8666 19.5064 28.75 19.3398 28.6C19.1898 28.4333 19.0731 28.2666 18.9898 28.05C18.9064 27.85 18.8564 27.6333 18.8564 27.4166C18.8564 27.2 18.9064 26.9833 18.9898 26.7833C19.0731 26.5833 19.1898 26.4 19.3398 26.2333C19.5064 26.0833 19.6898 25.9666 19.8898 25.8833C20.2898 25.7166 20.7564 25.7166 21.1564 25.8833C21.3564 25.9666 21.5398 26.0833 21.7064 26.2333C21.8564 26.4 21.9731 26.5833 22.0564 26.7833C22.1398 26.9833 22.1898 27.2 22.1898 27.4166C22.1898 27.6333 22.1398 27.85 22.0564 28.05C21.9731 28.2666 21.8564 28.4333 21.7064 28.6C21.5398 28.75 21.3564 28.8666 21.1564 28.95C20.9564 29.0333 20.7398 29.0833 20.5231 29.0833Z" fill="#3083FF"/>
</svg>
