<svg width="16" height="17" viewBox="0 0 16 17" fill="none" xmlns="http://www.w3.org/2000/svg">
<path fill-rule="evenodd" clip-rule="evenodd" d="M6.25093 14.0238L12.1085 6.44883C12.4269 6.04034 12.5401 5.56807 12.4339 5.0872C12.342 4.65005 12.0731 4.23439 11.6699 3.91906L10.6866 3.13792C9.83057 2.4571 8.76941 2.52877 8.16102 3.30991L7.5031 4.16344C7.41821 4.27022 7.43943 4.42789 7.54554 4.51388C7.54554 4.51388 9.20802 5.84685 9.2434 5.87551C9.35659 5.98301 9.44148 6.12634 9.4627 6.29834C9.49807 6.63516 9.26462 6.95049 8.91797 6.99349C8.75526 7.01499 8.59963 6.96482 8.48644 6.87166L6.73906 5.48136C6.65417 5.41758 6.52683 5.43119 6.45609 5.51719L2.30343 10.8921C2.0346 11.2289 1.94263 11.666 2.0346 12.0889L2.56518 14.3893C2.59348 14.5111 2.69959 14.5971 2.82693 14.5971L5.16148 14.5685C5.58594 14.5613 5.98211 14.3678 6.25093 14.0238ZM9.51977 13.3074H13.3265C13.6979 13.3074 14 13.6134 14 13.9897C14 14.3666 13.6979 14.6719 13.3265 14.6719H9.51977C9.14837 14.6719 8.84629 14.3666 8.84629 13.9897C8.84629 13.6134 9.14837 13.3074 9.51977 13.3074Z" fill="currentColor"/>
</svg>
