<svg width="124" height="47" viewBox="0 0 124 47" fill="none" xmlns="http://www.w3.org/2000/svg">
<rect y="0.5" width="124" height="46" rx="6" fill="#3083FF"/>
<path d="M25.4531 24.5391H23.4375V28.5H20.9766V17.125H25.4531C26.3542 17.125 27.125 17.2891 27.7656 17.6172C28.4115 17.9453 28.9062 18.3958 29.25 18.9688C29.599 19.5365 29.7734 20.1849 29.7734 20.9141C29.7734 22.0182 29.3906 22.8984 28.625 23.5547C27.8594 24.2109 26.8021 24.5391 25.4531 24.5391ZM25.4531 19.1094H23.4375V22.5625H25.4531C26.099 22.5625 26.5651 22.4115 26.8516 22.1094C27.138 21.8021 27.2812 21.4089 27.2812 20.9297C27.2812 20.4557 27.138 20.0339 26.8516 19.6641C26.5651 19.2943 26.099 19.1094 25.4531 19.1094ZM35.625 17.125C36.9427 17.125 37.9766 17.4193 38.7266 18.0078C39.4818 18.5911 39.8594 19.4427 39.8594 20.5625C39.8594 21.401 39.6771 22.0729 39.3125 22.5781C38.9531 23.0781 38.4635 23.4688 37.8438 23.75L40.2734 28.3828V28.5H37.6406L35.5547 24.3828H33.7969V28.5H31.3438V17.125H35.625ZM35.625 19.1094H33.7969V22.3984H35.6172C36.2109 22.3984 36.6562 22.2526 36.9531 21.9609C37.25 21.6641 37.3984 21.2656 37.3984 20.7656C37.3984 20.2552 37.2526 19.8516 36.9609 19.5547C36.6745 19.2578 36.2292 19.1094 35.625 19.1094ZM51.0078 23.0469C51.0078 24.2083 50.8021 25.2083 50.3906 26.0469C49.9792 26.8854 49.4062 27.5312 48.6719 27.9844C47.9427 28.4323 47.1016 28.6562 46.1484 28.6562C45.1901 28.6562 44.3411 28.4323 43.6016 27.9844C42.8672 27.5312 42.2917 26.8854 41.875 26.0469C41.4583 25.2083 41.25 24.2083 41.25 23.0469V22.5859C41.25 21.4245 41.4557 20.4245 41.8672 19.5859C42.2839 18.7422 42.8594 18.0964 43.5938 17.6484C44.3281 17.1953 45.1745 16.9688 46.1328 16.9688C47.0859 16.9688 47.9297 17.1953 48.6641 17.6484C49.3984 18.0964 49.9714 18.7422 50.3828 19.5859C50.7995 20.4245 51.0078 21.4245 51.0078 22.5859V23.0469ZM48.5312 22.5703C48.5312 21.3984 48.3203 20.5104 47.8984 19.9062C47.4818 19.2969 46.8932 18.9922 46.1328 18.9922C45.362 18.9922 44.7708 19.2969 44.3594 19.9062C43.9479 20.5104 43.7422 21.3984 43.7422 22.5703V23.0469C43.7422 24.2083 43.9505 25.099 44.3672 25.7188C44.7839 26.3333 45.3776 26.6406 46.1484 26.6406C46.9089 26.6406 47.4948 26.3333 47.9062 25.7188C48.3229 25.099 48.5312 24.2083 48.5312 23.0469V22.5703ZM57.2188 17.125H59.6641V24.9766C59.6641 25.737 59.4948 26.3932 59.1562 26.9453C58.8229 27.4922 58.3646 27.9141 57.7812 28.2109C57.2031 28.5078 56.5521 28.6562 55.8281 28.6562C55.0833 28.6562 54.4193 28.5312 53.8359 28.2812C53.2578 28.026 52.8021 27.638 52.4688 27.1172C52.1406 26.5911 51.9766 25.9245 51.9766 25.1172H54.4453C54.4453 25.7109 54.5677 26.1198 54.8125 26.3438C55.0625 26.5677 55.401 26.6797 55.8281 26.6797C56.2552 26.6797 56.5938 26.5312 56.8438 26.2344C57.0938 25.9375 57.2188 25.5182 57.2188 24.9766V17.125ZM69.2812 28.5H61.6016V17.125H69.2734V19.1094H64.0625V21.6953H68.5V23.6094H64.0625V26.5234H69.2812V28.5ZM79.6094 24.6875C79.5625 25.4635 79.3516 26.151 78.9766 26.75C78.6016 27.3438 78.0781 27.8099 77.4062 28.1484C76.7396 28.487 75.9375 28.6562 75 28.6562C74.0156 28.6562 73.1693 28.4349 72.4609 27.9922C71.7578 27.5443 71.2161 26.9115 70.8359 26.0938C70.4557 25.2708 70.2656 24.2943 70.2656 23.1641V22.4688C70.2656 21.3385 70.4609 20.362 70.8516 19.5391C71.2474 18.7161 71.7995 18.0807 72.5078 17.6328C73.2214 17.1849 74.0573 16.9609 75.0156 16.9609C75.974 16.9609 76.7812 17.138 77.4375 17.4922C78.099 17.8411 78.6094 18.3203 78.9688 18.9297C79.3333 19.5391 79.5521 20.2344 79.625 21.0156H77.1719C77.125 20.349 76.9427 19.8438 76.625 19.5C76.3125 19.151 75.776 18.9766 75.0156 18.9766C74.2552 18.9766 73.6875 19.2552 73.3125 19.8125C72.9427 20.3698 72.7578 21.25 72.7578 22.4531V23.1641C72.7578 24.3411 72.9271 25.2161 73.2656 25.7891C73.6094 26.362 74.1875 26.6484 75 26.6484C75.7135 26.6484 76.2396 26.487 76.5781 26.1641C76.9167 25.8359 77.112 25.3438 77.1641 24.6875H79.6094ZM86 28.5H83.5469V19.1094H80.1406V17.125H89.4531V19.1094H86V28.5ZM98.4297 22.1719L100.719 17.125H103.391L99.6797 24.3828V28.5H97.1875V24.3828L93.4688 17.125H96.1484L98.4297 22.1719Z" fill="white"/>
</svg>
