<svg width="124" height="46" viewBox="0 0 124 46" fill="none" xmlns="http://www.w3.org/2000/svg">
<rect width="124" height="46" rx="6" fill="#3083FF"/>
<path d="M36.9766 28V16.625H40.5156C41.5417 16.625 42.4453 16.8542 43.2266 17.3125C44.013 17.7708 44.6276 18.4089 45.0703 19.2266C45.513 20.0443 45.7344 20.9922 45.7344 22.0703V22.5547C45.7344 23.638 45.513 24.5885 45.0703 25.4062C44.6328 26.224 44.0208 26.862 43.2344 27.3203C42.4479 27.7734 41.5365 28 40.5 28H36.9766ZM40.5156 18.6094H39.4375V26.0234H40.5C41.401 26.0234 42.0833 25.7266 42.5469 25.1328C43.0156 24.5391 43.25 23.6797 43.25 22.5547V22.0547C43.25 20.9245 43.0156 20.0677 42.5469 19.4844C42.0833 18.901 41.4062 18.6094 40.5156 18.6094ZM49.0469 28H46.4297L50.6562 16.625H52.9297L57.1797 28H54.5625L53.8203 25.7344H49.7891L49.0469 28ZM50.4375 23.75H53.1641L51.7969 19.6172L50.4375 23.75ZM59.875 28H57.2578L61.4844 16.625H63.7578L68.0078 28H65.3906L64.6484 25.7344H60.6172L59.875 28ZM61.2656 23.75H63.9922L62.625 19.6172L61.2656 23.75ZM73.2188 28H70.7656V18.6094H67.3594V16.625H76.6719V18.6094H73.2188V28ZM87.0234 22.5469C87.0234 23.7083 86.8177 24.7083 86.4062 25.5469C85.9948 26.3854 85.4219 27.0312 84.6875 27.4844C83.9583 27.9323 83.1172 28.1562 82.1641 28.1562C81.2057 28.1562 80.3568 27.9323 79.6172 27.4844C78.8828 27.0312 78.3073 26.3854 77.8906 25.5469C77.474 24.7083 77.2656 23.7083 77.2656 22.5469V22.0859C77.2656 20.9245 77.4714 19.9245 77.8828 19.0859C78.2995 18.2422 78.875 17.5964 79.6094 17.1484C80.3438 16.6953 81.1901 16.4688 82.1484 16.4688C83.1016 16.4688 83.9453 16.6953 84.6797 17.1484C85.4141 17.5964 85.987 18.2422 86.3984 19.0859C86.8151 19.9245 87.0234 20.9245 87.0234 22.0859V22.5469ZM84.5469 22.0703C84.5469 20.8984 84.3359 20.0104 83.9141 19.4062C83.4974 18.7969 82.9089 18.4922 82.1484 18.4922C81.3776 18.4922 80.7865 18.7969 80.375 19.4062C79.9635 20.0104 79.7578 20.8984 79.7578 22.0703V22.5469C79.7578 23.7083 79.9661 24.599 80.3828 25.2188C80.7995 25.8333 81.3932 26.1406 82.1641 26.1406C82.9245 26.1406 83.5104 25.8333 83.9219 25.2188C84.3385 24.599 84.5469 23.7083 84.5469 22.5469V22.0703Z" fill="white"/>
</svg>
