<svg width="28" height="28" viewBox="0 0 28 28" fill="none" xmlns="http://www.w3.org/2000/svg">
<path opacity="0.4" d="M23.3337 9.62504V21C23.3337 24.5 21.2453 25.6667 18.667 25.6667H9.33366C6.75533 25.6667 4.66699 24.5 4.66699 21V9.62504C4.66699 5.83337 6.75533 4.95837 9.33366 4.95837C9.33366 5.68171 9.62529 6.33504 10.1036 6.81337C10.582 7.2917 11.2353 7.58337 11.9587 7.58337H16.042C17.4887 7.58337 18.667 6.40504 18.667 4.95837C21.2453 4.95837 23.3337 5.83337 23.3337 9.62504Z" fill="#3083FF"/>
<path d="M18.6663 4.95837C18.6663 6.40504 17.488 7.58337 16.0413 7.58337H11.958C11.2347 7.58337 10.5813 7.2917 10.103 6.81337C9.62464 6.33504 9.33301 5.68171 9.33301 4.95837C9.33301 3.51171 10.5113 2.33337 11.958 2.33337H16.0413C16.7647 2.33337 17.418 2.62504 17.8964 3.10338C18.3747 3.58171 18.6663 4.23504 18.6663 4.95837Z" fill="#3083FF"/>
<path d="M13.9997 16.0416H9.33301C8.85467 16.0416 8.45801 15.645 8.45801 15.1666C8.45801 14.6883 8.85467 14.2916 9.33301 14.2916H13.9997C14.478 14.2916 14.8747 14.6883 14.8747 15.1666C14.8747 15.645 14.478 16.0416 13.9997 16.0416Z" fill="#3083FF"/>
<path d="M18.6663 20.7084H9.33301C8.85467 20.7084 8.45801 20.3117 8.45801 19.8334C8.45801 19.355 8.85467 18.9584 9.33301 18.9584H18.6663C19.1447 18.9584 19.5413 19.355 19.5413 19.8334C19.5413 20.3117 19.1447 20.7084 18.6663 20.7084Z" fill="#3083FF"/>
</svg>
