<svg width="28" height="28" viewBox="0 0 28 28" fill="none" xmlns="http://www.w3.org/2000/svg">
<path opacity="0.4" d="M10.4997 2.33337C7.44301 2.33337 4.95801 4.81837 4.95801 7.87504C4.95801 10.8734 7.30301 13.3 10.3597 13.405C10.453 13.3934 10.5463 13.3934 10.6163 13.405C10.6397 13.405 10.6513 13.405 10.6747 13.405C10.6863 13.405 10.6863 13.405 10.698 13.405C13.6847 13.3 16.0297 10.8734 16.0413 7.87504C16.0413 4.81837 13.5563 2.33337 10.4997 2.33337Z" fill="#3083FF"/>
<path d="M16.4271 16.5082C13.1721 14.3382 7.86378 14.3382 4.58544 16.5082C3.10378 17.4999 2.28711 18.8416 2.28711 20.2766C2.28711 21.7116 3.10378 23.0416 4.57378 24.0216C6.20711 25.1182 8.35378 25.6666 10.5004 25.6666C12.6471 25.6666 14.7938 25.1182 16.4271 24.0216C17.8971 23.0299 18.7138 21.6999 18.7138 20.2532C18.7021 18.8182 17.8971 17.4882 16.4271 16.5082Z" fill="#3083FF"/>
<path opacity="0.4" d="M23.3219 8.56349C23.5086 10.8268 21.8986 12.8102 19.6702 13.0785C19.6586 13.0785 19.6586 13.0785 19.6469 13.0785H19.6119C19.5419 13.0785 19.4719 13.0785 19.4136 13.1018C18.2819 13.1602 17.2436 12.7985 16.4619 12.1335C17.6636 11.0602 18.3519 9.45016 18.2119 7.70016C18.1302 6.75516 17.8036 5.89182 17.3136 5.15682C17.7569 4.93516 18.2702 4.79516 18.7952 4.74849C21.0819 4.55016 23.1236 6.25349 23.3219 8.56349Z" fill="#3083FF"/>
<path d="M25.6546 19.3555C25.5613 20.4872 24.838 21.4672 23.6246 22.1322C22.458 22.7738 20.988 23.0772 19.5296 23.0422C20.3696 22.2838 20.8596 21.3388 20.953 20.3355C21.0696 18.8888 20.3813 17.5005 19.0046 16.3922C18.223 15.7738 17.313 15.2838 16.3213 14.9222C18.8996 14.1755 22.143 14.6772 24.138 16.2872C25.2113 17.1505 25.7596 18.2355 25.6546 19.3555Z" fill="#3083FF"/>
</svg>
