<svg width="53" height="53" viewBox="0 0 53 53" fill="none" xmlns="http://www.w3.org/2000/svg">
<rect x="0.5" y="0.5" width="52" height="52" rx="16" fill="#EFEFEF"/>
<path opacity="0.4" d="M38.38 25.3267C38.38 31.8467 33.6467 37.9534 27.18 39.7401C26.74 39.8601 26.26 39.8601 25.82 39.7401C19.3533 37.9534 14.62 31.8467 14.62 25.3267V19.4734C14.62 18.3801 15.4467 17.1401 16.4733 16.7268L23.9 13.6868C25.5667 13.0068 27.4467 13.0068 29.1133 13.6868L36.54 16.7268C37.5533 17.1401 38.3934 18.3801 38.3934 19.4734L38.38 25.3267Z" fill="#3083FF"/>
<path d="M29.8333 24.5003C29.8333 22.6603 28.34 21.167 26.5 21.167C24.66 21.167 23.1666 22.6603 23.1666 24.5003C23.1666 25.9937 24.1533 27.2337 25.5 27.6603V31.167C25.5 31.7137 25.9533 32.167 26.5 32.167C27.0466 32.167 27.5 31.7137 27.5 31.167V27.6603C28.8466 27.2337 29.8333 25.9937 29.8333 24.5003Z" fill="#3083FF"/>
</svg>
