<svg width="18" height="17" viewBox="0 0 18 17" fill="none" xmlns="http://www.w3.org/2000/svg">
<rect x="0.769531" width="17" height="17" rx="4" fill="#EFEFEF"/>
<path d="M8.11428 6.65501L8.75987 6.00942L11.2504 8.49976L8.7601 10.9901L8.11452 10.3445L9.50259 8.95634H4.76953V8.04325H9.50259L8.11428 6.65501ZM12.3107 13H6.31018C5.48307 13 4.81011 12.327 4.81011 11.4999V10.1958H5.7232L5.72329 11.4999C5.72329 11.8236 5.98663 12.0869 6.31027 12.0869H12.3107C12.6344 12.0869 12.8977 11.8236 12.8977 11.4999V5.49945C12.8977 5.17579 12.6344 4.91247 12.3107 4.91247H6.31027C5.98661 4.91247 5.72329 5.17581 5.72329 5.49945V6.80363H4.8102L4.81011 5.49945C4.81011 4.67234 5.48309 3.99938 6.31018 3.99938H12.3107C13.1378 3.99938 13.8107 4.67236 13.8107 5.49945L13.8108 11.4999C13.8108 12.327 13.1378 13 12.3107 13H12.3107Z" fill="#CACACA"/>
</svg>
