<svg width="18" height="17" viewBox="0 0 18 17" fill="none" xmlns="http://www.w3.org/2000/svg">
<rect x="0.769531" width="17" height="17" rx="4" fill="#F5F9FF"/>
<path d="M7.10007 4H5.00637C4.87375 4 4.76953 4.10421 4.76953 4.23684V6.33053C4.76953 6.46316 4.87375 6.56738 5.00637 6.56738H7.10007C7.23269 6.56738 7.33691 6.46316 7.33691 6.33053V4.23684C7.32739 4.10421 7.22318 4 7.10007 4Z" fill="#3083FF"/>
<path d="M13.5337 4H11.44C11.3073 4 11.2031 4.10421 11.2031 4.23684V6.33053C11.2031 6.46316 11.3073 6.56738 11.44 6.56738H13.5337C13.6663 6.56738 13.7705 6.46316 13.7705 6.33053V4.23684C13.7705 4.10421 13.6663 4 13.5337 4Z" fill="#3083FF"/>
<path d="M13.5337 10.4453H11.44C11.3073 10.4453 11.2031 10.5495 11.2031 10.6822V12.7664C11.2031 12.899 11.3073 13.0032 11.44 13.0032H13.5337C13.6663 13.0032 13.7705 12.899 13.7705 12.7664V10.6727C13.7705 10.5496 13.6663 10.4453 13.5337 10.4453V10.4453Z" fill="#3083FF"/>
<path d="M9.78221 4.46951C9.68745 4.37475 9.54537 4.37475 9.4506 4.46951C9.35583 4.56427 9.35583 4.70635 9.4506 4.80112L9.6969 5.04742H8.27591C8.14328 5.04742 8.03906 5.15164 8.03906 5.28427C8.03906 5.4169 8.14328 5.52111 8.27591 5.52111H9.70642L9.46012 5.76741C9.36536 5.86217 9.36536 6.00425 9.46012 6.09902C9.5075 6.14641 9.56433 6.16537 9.63061 6.16537C9.68745 6.16537 9.75379 6.14641 9.80111 6.09902L10.4548 5.44532C10.5496 5.35056 10.5496 5.20848 10.4548 5.11371L9.78221 4.46951Z" fill="#3083FF"/>
<path d="M12.4913 7.26562C12.3587 7.26562 12.2545 7.36984 12.2545 7.50247V8.93298L12.0082 8.68668C11.9134 8.59192 11.7713 8.59192 11.6765 8.68668C11.5818 8.78145 11.5818 8.92353 11.6765 9.0183L12.3302 9.672C12.3776 9.71938 12.4345 9.73835 12.5007 9.73835C12.5671 9.73835 12.6239 9.70993 12.6712 9.672L13.3249 9.0183C13.4197 8.92353 13.4197 8.78145 13.3249 8.68668C13.2302 8.59192 13.0881 8.59192 12.9933 8.68668L12.747 8.93298L12.7471 7.50247C12.7281 7.36984 12.6145 7.26562 12.4913 7.26562H12.4913Z" fill="#3083FF"/>
<path d="M7.10007 10.4453H5.00637C4.87375 10.4453 4.76953 10.5495 4.76953 10.6822V12.7664C4.76953 12.899 4.87375 13.0032 5.00637 13.0032H7.10007C7.23269 13.0032 7.33691 12.899 7.33691 12.7664V10.6727C7.32739 10.5496 7.22318 10.4453 7.10007 10.4453V10.4453Z" fill="#3083FF"/>
<path d="M10.2543 11.4849H8.82376L9.07006 11.2386C9.16483 11.1439 9.16483 11.0018 9.07006 10.907C8.9753 10.8122 8.83322 10.8122 8.73845 10.907L8.08475 11.5607C7.98998 11.6555 7.98998 11.7976 8.08475 11.8923L8.73845 12.546C8.78583 12.5934 8.84266 12.6124 8.90894 12.6124C8.96577 12.6124 9.03212 12.5934 9.07943 12.546C9.1742 12.4513 9.1742 12.3092 9.07943 12.2144L8.83313 11.9681H10.2636C10.3963 11.9681 10.5005 11.8639 10.5005 11.7313C10.4817 11.5891 10.3774 11.4849 10.2543 11.4849H10.2543Z" fill="#3083FF"/>
</svg>
